<svg height="512" viewBox="0 0 64 64" width="512" xmlns="http://www.w3.org/2000/svg"><path d="m17 19h2v2h-2z"/><path d="m27 19h2v2h-2z"/><path d="m27 25h-2a2 2 0 0 1 -4 0h-2a4 4 0 0 0 8 0z"/><path d="m18 24a4 4 0 0 0 4-4 1 1 0 0 1 2 0 4.039 4.039 0 1 0 .8-2.381 2.941 2.941 0 0 0 -3.61 0 3.994 3.994 0 1 0 -3.19 6.381zm10-6a2 2 0 1 1 -2 2 2 2 0 0 1 2-2zm-10 0a2 2 0 1 1 -2 2 2 2 0 0 1 2-2z"/><path d="m57 41h-18a1 1 0 0 0 -1 1v15a1 1 0 0 0 1 1h18a1 1 0 0 0 1-1v-15a1 1 0 0 0 -1-1zm-1 5h-4v-3h4zm-10 5v-3h4v3zm4 2v3h-4v-3zm-6-2h-4v-3h4zm2-5v-3h4v3zm6 2h4v3h-4zm-8-5v3h-4v-3zm-4 10h4v3h-4zm12 3v-3h4v3z"/><path d="m59 25h-22a3 3 0 0 0 -3 3v10.14l-6-1.875v-3.479a11 11 0 0 0 6-9.786v-1a3 3 0 0 0 0-6v-3a11 11 0 0 0 -22 0v3a3 3 0 0 0 0 6v1a11 11 0 0 0 6 9.786v3.479l-8.277 2.589a10.943 10.943 0 0 0 -7.723 10.496v11.65a1 1 0 0 0 1 1h56a3 3 0 0 0 3-3v-31a3 3 0 0 0 -3-3zm-37.174 35-.6-3.1 1.654-12.9h.24l1.651 12.9-.6 3.1zm-6.618-20.766.552-.173 1.519 7.881-4.052-3.242zm4.28 2.668 1.458 1.458-.927 7.248-1.734-9.008zm3.065-2.002a1 1 0 0 0 .894 0l.022-.012 1.117 1.112-1 1h-1.172l-1-1 1.117-1.117zm3.959 2 1.2-.3-1.734 9.007-.927-7.248zm6.261 1.8-4.052 3.241 1.519-7.881.551.172zm-2.073 7.414-3.84 5.486 1.507-7.818zm-13.067-2.333 1.507 7.819-3.84-5.486zm15.186 2.792a1 1 0 0 0 -.112-1.28l-2.21-2.21 3.5-2.8v13.717a2.966 2.966 0 0 0 .184 1h-7.26zm1.181-10.039-.669-1.508.669.209zm-5.681-3.074-.188.975-1.825.457-.951-.951 1.732-.866zm6.681-19.46a1 1 0 0 1 -1 1v-2a1 1 0 0 1 1 1zm-12-15a9.01 9.01 0 0 1 9 9v1h-1.586l-2.707-2.707a1 1 0 0 0 -1.307-.093l-3.733 2.8h-8.667v-1a9.01 9.01 0 0 1 9-9zm-12 15a1 1 0 0 1 1-1v2a1 1 0 0 1 -1-1zm3 4v-7h9a1 1 0 0 0 .6-.2l3.306-2.48 2.387 2.387a1 1 0 0 0 .707.293h2v7a9 9 0 0 1 -18 0zm9 11a10.966 10.966 0 0 0 3-.426v2.808l-3 1.5-3-1.5v-2.808a10.966 10.966 0 0 0 3 .426zm-4.087 4.075 1.732.866-.951.951-1.825-.457-.188-.975zm-14.913 11.275a8.951 8.951 0 0 1 6.319-8.586l2.349-.735-1.582 3.571a1 1 0 0 0 .289 1.186l4.128 3.3-2.21 2.21a1 1 0 0 0 -.112 1.28l5.898 8.424h-8.079v-12h-2v12h-5zm56 9.65a1 1 0 0 1 -1 1h-22a1 1 0 0 1 -1-1v-31a1 1 0 0 1 1-1h22a1 1 0 0 1 1 1z"/><path d="m57 29h-18a1 1 0 0 0 -1 1v8a1 1 0 0 0 1 1h18a1 1 0 0 0 1-1v-8a1 1 0 0 0 -1-1zm-1 8h-16v-6h16z"/><path d="m51 33h2v2h-2z"/><path d="m47 33h2v2h-2z"/><path d="m43 33h2v2h-2z"/></svg>